<svg xmlns="http://www.w3.org/2000/svg" width="16" height="16" viewBox="0 0 4.233 4.233"><g style="opacity:1"><path d="M46.984 76.122a2.117 2.117 0 0 0-1.793 3.242l1.764-2.281c.013-.017.045-.017.057 0l.737.952h-.527l.011.042h.55l.155.201h-.648l.018.066h.68l.138.177h-.769l.024.085h.81l.123.158h-.889l.03.104h.938l.108.138h-1.009l.033.115h1.065l.099.128H47.56l.033.115h1.184a2.117 2.117 0 0 0-1.793-3.242m.644 3.37.033.115h.939q.047-.056.09-.115zm.068.243.032.115h.629a3 3 0 0 0 .125-.115zm.068.243.032.114h.212c.063-.036.121-.072.184-.114z" style="fill-opacity:1;stroke:none;stroke-width:.0660874;paint-order:markers fill stroke;stop-color:#000" transform="translate(-44.867 -75.99)"/></g></svg>